REM DIRINDEX 1\2,1\3,1\4,1\5
REM DIRNAME "folder01","folder02","folder03","folder04","folder05"
TITLE ""
FILE "1Q_t_0388-0400.mp3" MP3
  TRACK 01 AUDIO
    TITLE "0:"
    INDEX 01 00:00:00
  TRACK 02 AUDIO
    TITLE "3:cjc172_2088"
    INDEX 01 00:00:10
  TRACK 03 AUDIO
    TITLE "0:"
    INDEX 01 00:01:51
  TRACK 04 AUDIO
    TITLE "4:cjc172_2089"
    INDEX 01 00:01:70
  TRACK 05 AUDIO
    TITLE "0:"
    INDEX 01 00:03:46
  TRACK 06 AUDIO
    TITLE "5:cjc172_2090"
    INDEX 01 00:03:60
  TRACK 07 AUDIO
    TITLE "0:"
    INDEX 01 00:10:24
  TRACK 08 AUDIO
    TITLE "3:cjc172_2091"
    INDEX 01 00:11:02
  TRACK 09 AUDIO
    TITLE "0:"
    INDEX 01 00:12:21
  TRACK 10 AUDIO
    TITLE "4:cjc172_2092"
    INDEX 01 00:12:39
  TRACK 11 AUDIO
    TITLE "0:"
    INDEX 01 00:15:37
  TRACK 12 AUDIO
    TITLE "5:cjc172_2093"
    INDEX 01 00:15:51
  TRACK 13 AUDIO
    TITLE "0:"
    INDEX 01 00:21:30
  TRACK 14 AUDIO
    TITLE "3:cjc172_2094"
    INDEX 01 00:22:08
  TRACK 15 AUDIO
    TITLE "0:"
    INDEX 01 00:23:33
  TRACK 16 AUDIO
    TITLE "4:cjc172_2095"
    INDEX 01 00:23:51
  TRACK 17 AUDIO
    TITLE "0:"
    INDEX 01 00:25:04
  TRACK 18 AUDIO
    TITLE "5:cjc172_2096"
    INDEX 01 00:25:20
  TRACK 19 AUDIO
    TITLE "0:"
    INDEX 01 00:30:54
  TRACK 20 AUDIO
    TITLE "3:cjc172_2097"
    INDEX 01 00:31:36
  TRACK 21 AUDIO
    TITLE "0:"
    INDEX 01 00:32:42
  TRACK 22 AUDIO
    TITLE "4:cjc172_2098"
    INDEX 01 00:32:61
  TRACK 23 AUDIO
    TITLE "0:"
    INDEX 01 00:35:73
  TRACK 24 AUDIO
    TITLE "5:cjc172_2099"
    INDEX 01 00:36:12
  TRACK 25 AUDIO
    TITLE "0:"
    INDEX 01 00:42:22
  TRACK 26 AUDIO
    TITLE "3:cjc172_2100"
    INDEX 01 00:43:02
  TRACK 27 AUDIO
    TITLE "0:"
    INDEX 01 00:44:12
  TRACK 28 AUDIO
    TITLE "4:cjc172_2101"
    INDEX 01 00:44:25
  TRACK 29 AUDIO
    TITLE "0:"
    INDEX 01 00:46:30
  TRACK 30 AUDIO
    TITLE "5:cjc172_2102"
    INDEX 01 00:46:46
  TRACK 31 AUDIO
    TITLE "0:"
    INDEX 01 00:52:56
  TRACK 32 AUDIO
    TITLE "3:cjc172_2103"
    INDEX 01 00:53:38
  TRACK 33 AUDIO
    TITLE "0:"
    INDEX 01 00:54:39
  TRACK 34 AUDIO
    TITLE "4:cjc172_2104"
    INDEX 01 00:54:57
  TRACK 35 AUDIO
    TITLE "0:"
    INDEX 01 00:56:54
  TRACK 36 AUDIO
    TITLE "5:cjc172_2105"
    INDEX 01 00:56:68
  TRACK 37 AUDIO
    TITLE "0:"
    INDEX 01 01:03:46
  TRACK 38 AUDIO
    TITLE "3:cjc172_2106"
    INDEX 01 01:04:24
  TRACK 39 AUDIO
    TITLE "0:"
    INDEX 01 01:05:45
  TRACK 40 AUDIO
    TITLE "4:cjc172_2107"
    INDEX 01 01:05:63
  TRACK 41 AUDIO
    TITLE "0:"
    INDEX 01 01:07:73
  TRACK 42 AUDIO
    TITLE "5:cjc172_2108"
    INDEX 01 01:08:14
  TRACK 43 AUDIO
    TITLE "0:"
    INDEX 01 01:13:27
  TRACK 44 AUDIO
    TITLE "3:cjc172_2109"
    INDEX 01 01:14:05
  TRACK 45 AUDIO
    TITLE "0:"
    INDEX 01 01:15:06
  TRACK 46 AUDIO
    TITLE "4:cjc172_2110"
    INDEX 01 01:15:24
  TRACK 47 AUDIO
    TITLE "0:"
    INDEX 01 01:17:50
  TRACK 48 AUDIO
    TITLE "5:cjc172_2111"
    INDEX 01 01:17:66
  TRACK 49 AUDIO
    TITLE "0:"
    INDEX 01 01:22:34
  TRACK 50 AUDIO
    TITLE "3:cjc172_2112"
    INDEX 01 01:23:12
  TRACK 51 AUDIO
    TITLE "0:"
    INDEX 01 01:24:23
  TRACK 52 AUDIO
    TITLE "4:cjc172_2113"
    INDEX 01 01:24:40
  TRACK 53 AUDIO
    TITLE "0:"
    INDEX 01 01:26:67
  TRACK 54 AUDIO
    TITLE "5:cjc172_2114"
    INDEX 01 01:27:07
  TRACK 55 AUDIO
    TITLE "0:"
    INDEX 01 01:32:32
  TRACK 56 AUDIO
    TITLE "2:cjc172_2115"
    INDEX 01 01:33:14
  TRACK 57 AUDIO
    TITLE "0:"
    INDEX 01 01:34:17
  TRACK 58 AUDIO
    TITLE "3:cjc172_2116"
    INDEX 01 01:34:70
  TRACK 59 AUDIO
    TITLE "0:"
    INDEX 01 01:36:24
  TRACK 60 AUDIO
    TITLE "4:cjc172_2117"
    INDEX 01 01:36:44
  TRACK 61 AUDIO
    TITLE "0:"
    INDEX 01 01:39:26
  TRACK 62 AUDIO
    TITLE "5:cjc172_2118"
    INDEX 01 01:39:42
  TRACK 63 AUDIO
    TITLE "0:"
    INDEX 01 01:45:21
  TRACK 64 AUDIO
    TITLE "3:cjc172_2119"
    INDEX 01 01:45:74
  TRACK 65 AUDIO
    TITLE "0:"
    INDEX 01 01:47:06
  TRACK 66 AUDIO
    TITLE "4:cjc172_2120"
    INDEX 01 01:47:24
  TRACK 67 AUDIO
    TITLE "0:"
    INDEX 01 01:50:48
  TRACK 68 AUDIO
    TITLE "5:cjc172_2121"
    INDEX 01 01:50:61
  TRACK 69 AUDIO
    TITLE "0:"
    INDEX 01 01:55:16
  TRACK 70 AUDIO
    TITLE "3:cjc172_2122"
    INDEX 01 01:55:68
  TRACK 71 AUDIO
    TITLE "0:"
    INDEX 01 01:57:18
  TRACK 72 AUDIO
    TITLE "4:cjc172_2123"
    INDEX 01 01:57:36
  TRACK 73 AUDIO
    TITLE "0:"
    INDEX 01 01:58:39
  TRACK 74 AUDIO
    TITLE "5:cjc172_2124"
    INDEX 01 01:58:53
  TRACK 75 AUDIO
    TITLE "0:"
    INDEX 01 02:04:26
  TRACK 76 AUDIO
    TITLE "3:cjc172_2125"
    INDEX 01 02:05:04
  TRACK 77 AUDIO
    TITLE "0:"
    INDEX 01 02:06:31
  TRACK 78 AUDIO
    TITLE "4:cjc172_2126"
    INDEX 01 02:06:47
  TRACK 79 AUDIO
    TITLE "0:"
    INDEX 01 02:08:38
  TRACK 80 AUDIO
    TITLE "5:cjc172_2127"
    INDEX 01 02:08:53
  TRACK 81 AUDIO
    TITLE "0:"
    INDEX 01 02:14:66
